<?xml version="1.0" encoding="utf-8"?>
<!-- Generator: Adobe Illustrator 22.0.1, SVG Export Plug-In . SVG Version: 6.00 Build 0)  -->
<svg version="1.1"
	 id="svg2" inkscape:version="0.48.5 r10040" sodipodi:docname="bg_form_mail.svg" xmlns:cc="http://creativecommons.org/ns#" xmlns:dc="http://purl.org/dc/elements/1.1/" xmlns:inkscape="http://www.inkscape.org/namespaces/inkscape" xmlns:rdf="http://www.w3.org/1999/02/22-rdf-syntax-ns#" xmlns:sodipodi="http://sodipodi.sourceforge.net/DTD/sodipodi-0.dtd" xmlns:svg="http://www.w3.org/2000/svg"
	 xmlns="http://www.w3.org/2000/svg" xmlns:xlink="http://www.w3.org/1999/xlink" x="0px" y="0px" viewBox="0 0 595.3 841.9"
	 style="enable-background:new 0 0 595.3 841.9;" xml:space="preserve">
<style type="text/css">
	.st0{fill:#3A7898;}
	.st1{fill:#FFFFFF;}
</style>
<sodipodi:namedview  bordercolor="#666666" borderlayer="true" borderopacity="1" fit-margin-bottom="0" fit-margin-left="0" fit-margin-right="0" fit-margin-top="0" gridtolerance="10" guidetolerance="10" id="namedview16" inkscape:current-layer="svg2" inkscape:cx="51.433825" inkscape:cy="0.85406643" inkscape:guide-bbox="true" inkscape:pageopacity="0" inkscape:pageshadow="2" inkscape:showpageshadow="false" inkscape:window-height="1354" inkscape:window-maximized="1" inkscape:window-width="2560" inkscape:window-x="0" inkscape:window-y="50" inkscape:zoom="1.888" objecttolerance="10" pagecolor="#ffffff" showgrid="false" showguides="true">
	<sodipodi:guide  id="guide3767" orientation="1,0" position="104.05187,155.92793"></sodipodi:guide>
	<sodipodi:guide  id="guide3769" orientation="0,1" position="104.05187,104.02115"></sodipodi:guide>
</sodipodi:namedview>
<path id="path2997" sodipodi:cx="-267.4122" sodipodi:cy="104.77555" sodipodi:rx="104.11848" sodipodi:ry="104.11848" sodipodi:type="arc" class="st0" d="
	M595.3,420.9c0,164.4-133.3,297.6-297.6,297.6C133.3,718.6,0,585.3,0,421c0,0,0,0,0,0c0-164.4,133.3-297.6,297.6-297.6
	C462,123.3,595.3,256.6,595.3,420.9C595.3,420.9,595.3,420.9,595.3,420.9z"/>
<g id="flowRoot3871" transform="matrix(2.8654436,0,0,2.8654436,90.527461,564.52106)">
	<path id="path2993" class="st1" d="M54-49.9c0,6.8,1.7,12.2,5.1,16.1c3.4,3.9,8,5.8,13.9,5.8c5.9,0,10.5-2,13.8-5.9
		c3.4-3.9,5.1-9.3,5.1-16c0-6.7-1.7-12-5.1-15.9c-3.4-4-8.1-5.9-13.9-5.9c-5.8,0-10.4,2-13.8,5.9C55.6-61.9,54-56.6,54-49.9
		 M92.9-28.5c-2.9,3.7-6.2,6.4-9.9,8.2c-3.7,1.7-8,2.6-12.9,2.6c-8.2,0-14.9-3-20-8.9c-5.1-6-7.7-13.7-7.7-23.2
		c0-9.5,2.6-17.3,7.7-23.2c5.1-6,11.8-8.9,20-8.9c4.9,0,9.2,0.9,12.9,2.7c3.7,1.8,7,4.5,9.8,8.1v-9.4h10.2V-28
		c7-1,12.4-4.2,16.3-9.5c4-5.3,5.9-12.2,5.9-20.7c0-5.1-0.8-9.9-2.3-14.4c-1.5-4.5-3.7-8.6-6.8-12.4c-5-6.2-11-11-18.2-14.3
		c-7.1-3.3-14.9-5-23.2-5c-5.9,0-11.5,0.8-16.9,2.4c-5.4,1.5-10.4,3.8-14.9,6.9c-7.5,4.9-13.4,11.3-17.6,19.2
		c-4.2,7.9-6.3,16.4-6.3,25.6c0,7.6,1.4,14.7,4.1,21.3C26-22.4,30-16.5,35.2-11.5c5,5,10.8,8.7,17.4,11.3c6.6,2.6,13.6,3.9,21.1,3.9
		c6.2,0,12.2-1,18.1-3.1c6-2.1,11.4-5,16.4-8.9l6.4,7.9c-6,4.6-12.5,8.2-19.5,10.6c-7,2.5-14.1,3.7-21.4,3.7c-8.8,0-17.1-1.6-25-4.7
		C40.9,6.2,34,1.7,27.8-4.3c-6.1-6-10.8-12.9-13.9-20.7c-3.2-7.9-4.8-16.3-4.8-25.3c0-8.7,1.6-17,4.9-24.8
		c3.2-7.9,7.9-14.8,13.9-20.7c6.2-6.1,13.3-10.7,21.3-13.9c8.1-3.2,16.6-4.9,25.6-4.9c10.1,0,19.5,2.1,28.1,6.2
		c8.7,4.1,16,10,21.8,17.7c3.6,4.7,6.3,9.8,8.2,15.2c1.9,5.5,2.9,11.2,2.9,17c0,12.5-3.8,22.4-11.4,29.7c-7.6,7.2-18,11-31.4,11.3
		L92.9-28.5"/>
</g>
</svg>
